<svg id="Layer_1" data-name="Layer 1" xmlns="http://www.w3.org/2000/svg" viewBox="0 0 690 240"><defs><style>.cls-1{fill:#0b0e35}</style></defs><path class="cls-1" d="M274.52 118.22v-17.07H250V81.46h-19.95v19.69h-20.72v17.07h20.72V144c0 12.18 2.34 19.46 7.38 24.5 6.85 6.86 16.09 8.54 23.89 8.54 9.34 0 12.35-1.53 12.35-1.53v-16.84a75.27 75.27 0 0 1-11.6.76c-2.37 0-6.53-.53-9.22-3.22-2.34-2.34-2.89-6.22-2.89-9.48v-28.51zM329.83 99.61c-8.36 0-15.77 2.93-20.33 7.49a20 20 0 0 0-1.41 1.56v-7.51h-19.17v74.39h19.91V129a22.76 22.76 0 0 1 19.47-11 47.22 47.22 0 0 1 8.17.77v-18.54a43.5 43.5 0 0 0-6.64-.62zM511.69 101.15h-21l-20.24 44.34-21.63-44.34h-21.94l33.29 66.87v.01L445.1 200h20.85l45.74-98.85zM399.39 101.15v5.9a36.17 36.17 0 0 0-21.76-7.44c-20.1 0-36.57 16.69-36.57 38.81s17 38.65 37.47 38.65c12.75 0 20.12-6.73 20.82-7.39v5.86h19.14v-74.39zm-18.76 57.52c-10.71 0-19.61-8.15-19.61-20.25 0-11.57 8.24-20.4 19.15-20.4a23.76 23.76 0 0 1 18.41 8.9v22.87a22.29 22.29 0 0 1-17.95 8.88zM510.75 150.92A13.08 13.08 0 1 1 497.38 164a13.1 13.1 0 0 1 13.37-13.08zM547.44 63.45a12.74 12.74 0 1 1-13 12.74 12.78 12.78 0 0 1 13-12.74zM537.49 101.15h19.91v74.39h-19.91zM610.34 99.61c-21.86 0-39.58 16.87-39.58 38.73s17.72 38.74 39.58 38.74 39.59-16.87 39.59-38.74-17.73-38.73-39.59-38.73zm0 59.06c-10.85 0-19.64-8.21-19.64-20.33 0-11.92 8.79-20.32 19.64-20.32s19.66 8.4 19.66 20.32c0 12.12-8.81 20.33-19.66 20.33zM139.63 40a39.82 39.82 0 0 0-39.82 39.82v7.47h19.91v-7.47a19.91 19.91 0 1 1 19.91 19.92H79.9a39.82 39.82 0 1 0 0 79.64h7.46v-19.91H79.9a19.91 19.91 0 0 1 0-39.82h19.91v59.73h19.91v-59.73h19.91a39.83 39.83 0 1 0 0-79.65z"/></svg>